<svg xmlns="http://www.w3.org/2000/svg" width="960" height="580" viewBox="0 0 960 580"><rect width="960" height="580" fill="white"/><g font-family="Arial,sans-serif" font-size="14" fill="#1e293b"><text x="55" y="32" font-size="22">静音恢复录音：每 0.5 秒 RMS 电平</text><text x="55" y="57">统一刻度；越低表示文件中的信号越弱。各段起点仅为录音起点，未对齐同一句话。</text><path d="M75 460.0 H910" stroke="#e2e8f0"/><text x="12" y="465.0">-100 dBFS</text><path d="M75 388.0 H910" stroke="#e2e8f0"/><text x="12" y="393.0">-80 dBFS</text><path d="M75 316.0 H910" stroke="#e2e8f0"/><text x="12" y="321.0">-60 dBFS</text><path d="M75 244.0 H910" stroke="#e2e8f0"/><text x="12" y="249.0">-40 dBFS</text><path d="M75 172.0 H910" stroke="#e2e8f0"/><text x="12" y="177.0">-20 dBFS</text><path d="M75 100.0 H910" stroke="#e2e8f0"/><text x="12" y="105.0">0 dBFS</text><text x="75" y="483">0s</text><text x="165" y="483">1s</text><text x="255" y="483">2s</text><text x="345" y="483">3s</text><text x="435" y="483">4s</text><text x="525" y="483">5s</text><text x="615" y="483">6s</text><text x="705" y="483">7s</text><text x="795" y="483">8s</text><text x="885" y="483">9s</text><polyline points="97.5,223.0 142.5,195.7 187.5,191.4 232.5,211.5 277.5,212.9 322.5,291.4 367.5,294.1 412.5,276.0 457.5,302.7 502.5,294.3 547.5,292.1 592.5,289.3 637.5,299.9 682.5,286.7 727.5,265.6 772.5,302.3 817.5,324.8 862.5,327.4" fill="none" stroke="#64748b" stroke-width="2.5"/><rect x="45" y="509" width="16" height="4" fill="#64748b"/><text x="69" y="520">静音前</text><polyline points="97.5,258.6 142.5,204.6 187.5,180.4 232.5,202.7 277.5,257.8 322.5,249.9 367.5,260.3 412.5,251.1 457.5,265.8 502.5,256.8" fill="none" stroke="#059669" stroke-width="2.5"/><rect x="345" y="509" width="16" height="4" fill="#059669"/><text x="369" y="520">第一次静音之后</text><polyline points="97.5,181.6 142.5,178.3 187.5,202.9 232.5,253.6 277.5,245.4 322.5,252.9 367.5,249.4" fill="none" stroke="#2563eb" stroke-width="2.5"/><rect x="645" y="509" width="16" height="4" fill="#2563eb"/><text x="669" y="520">第二次静音之后</text><polyline points="97.5,282.0 142.5,213.8 187.5,237.3 232.5,323.0 277.5,398.8 322.5,391.3 367.5,397.8" fill="none" stroke="#d97706" stroke-width="2.5"/><rect x="45" y="539" width="16" height="4" fill="#d97706"/><text x="69" y="550">第三次静音之后</text><polyline points="97.5,426.7 142.5,388.6 187.5,356.2 232.5,365.0 277.5,405.2" fill="none" stroke="#dc2626" stroke-width="2.5"/><rect x="345" y="539" width="16" height="4" fill="#dc2626"/><text x="369" y="550">第四次静音之后</text></g></svg>